<svg height="512pt" viewBox="-5 0 512 512" width="512pt" xmlns="http://www.w3.org/2000/svg"><path style="fill: #ffffff;" d="m494.476562 335.394531c-6.019531-8.597656-15.027343-14.335937-25.363281-16.15625l-29.824219-5.261719-33.882812 192.15625 29.824219 5.257813c2.304687.40625 4.613281.609375 6.910156.609375 7.988281 0 15.773437-2.441406 22.453125-7.117188 8.597656-6.019531 14.335938-15.027343 16.160156-25.367187l20.234375-114.757813c1.824219-10.335937-.488281-20.765624-6.511719-29.363281zm0 0"/><path style="fill: #ffffff;" d="m383.84375 293.269531c-15.160156-2.671875-30.453125.71875-43.0625 9.546875s-21.027344 22.042969-23.699219 37.203125l-17.605469 99.847657c-2.675781 15.160156.714844 30.453124 9.546876 43.0625 8.828124 12.613281 22.039062 21.027343 37.199218 23.699218l27.722656 4.890625 37.621094-213.359375zm0 0"/><path style="fill: #ffffff;" d="m184.515625 340.015625c-2.675781-15.15625-11.089844-28.371094-23.703125-37.199219-12.609375-8.828125-27.902344-12.222656-43.0625-9.546875l-27.71875 4.886719 37.621094 213.359375 27.71875-4.886719c15.160156-2.671875 28.371094-11.089844 37.203125-23.699218 8.828125-12.609376 12.21875-27.902344 9.546875-43.0625zm0 0"/><path style="fill: #ffffff;" d="m32.480469 319.238281c-10.335938 1.820313-19.34375 7.558594-25.363281 16.15625-6.019532 8.597657-8.332032 19.027344-6.511719 29.363281l20.238281 114.761719c1.820312 10.335938 7.558594 19.34375 16.15625 25.363281 6.683594 4.679688 14.46875 7.117188 22.457031 7.117188 2.292969 0 4.601563-.203125 6.90625-.605469l29.824219-5.261719-33.878906-192.15625zm0 0"/><path style="fill: #ffffff;" d="m479.957031 290.890625c.398438-12.941406-.253906-25.933594-1.972656-38.910156 12.585937-8.242188 19.847656-23.402344 17.238281-39.175781-9.710937-58.675782-39.269531-112.40625-83.238281-151.296876-44.835937-39.664062-102.082031-61.507812-161.1875-61.507812-59.101563 0-116.347656 21.84375-161.1875 61.507812-43.96875 38.890626-73.527344 92.621094-83.234375 151.296876-2.609375 15.773437 4.648438 30.933593 17.238281 39.175781-1.722656 12.976562-2.375 25.96875-1.972656 38.910156 1.847656-.480469 3.71875-.910156 5.625-1.246094l24.320313-4.289062c-.082032-9.277344.449218-18.582031 1.613281-27.882813 15.253906-3.292968 27.734375-15.574218 30.433593-31.882812 14.121094-85.339844 84.421876-147.28125 167.164063-147.28125s153.046875 61.941406 167.167969 147.28125c2.683594 16.222656 14.933594 28.640625 30.433594 31.910156 1.164062 9.289062 1.695312 18.585938 1.613281 27.855469l24.320312 4.289062c1.902344.335938 3.773438.765625 5.625 1.246094zm0 0"/></svg>